<svg width="459" height="347" viewBox="0 0 459 347" fill="none" xmlns="http://www.w3.org/2000/svg">
<rect width="443.988" height="291.216" fill="#E6E6E6"/>
<rect x="12.4395" y="37.2599" width="418.153" height="110.799" fill="white"/>
<rect x="116.738" y="52.9483" width="88.989" height="5.88315" fill="#E6E6E6"/>
<rect x="117.695" y="71.5782" width="136.833" height="5.88315" fill="#B00E23"/>
<rect x="116.738" y="89.2277" width="111.954" height="5.88315" fill="#E6E6E6"/>
<rect x="117.695" y="106.877" width="65.0673" height="5.88315" fill="#E6E6E6"/>
<rect x="117.695" y="125.507" width="97.6009" height="5.88315" fill="#E6E6E6"/>
<rect x="76.5498" y="50.9872" width="10.5256" height="10.7858" fill="#E6E6E6"/>
<rect x="76.5498" y="68.6367" width="10.5256" height="10.7858" fill="#B00E23"/>
<rect x="76.5498" y="86.2861" width="10.5256" height="10.7858" fill="#E6E6E6"/>
<rect x="76.5498" y="104.916" width="10.5256" height="10.7858" fill="#E6E6E6"/>
<rect x="76.5498" y="122.566" width="10.5256" height="10.7858" fill="#E6E6E6"/>
<rect x="332.034" y="47.0652" width="85.1616" height="87.2667" fill="#E6E6E6"/>
<rect x="12.4395" y="163.748" width="418.153" height="110.799" fill="white"/>
<rect x="99.5146" y="185.319" width="12.4393" height="10.7858" fill="#E6E6E6"/>
<rect x="75.5928" y="185.319" width="12.4393" height="10.7858" fill="#B00E23"/>
<path d="M260.127 197.085C253.44 185.342 241.723 177.643 228.63 176.388C215.536 175.134 202.658 180.476 194.01 190.75L191.374 188.361C200.76 177.207 214.738 171.406 228.951 172.768C243.164 174.13 255.882 182.488 263.139 195.236L260.127 197.085Z" fill="#E6E6E6"/>
<path d="M262.24 244.151L259.312 242.17C268.163 228.891 268.655 211.682 260.578 197.913L263.614 196.105C272.384 211.052 271.85 229.735 262.24 244.151V244.151Z" fill="#B00E23"/>
<path d="M191.74 249.053C177.353 231.791 177.203 205.713 191.389 188.261L193.922 190.638C180.853 206.717 180.992 230.739 194.245 246.642L191.74 249.053Z" fill="#B00E23"/>
<rect x="332.034" y="179.436" width="80.3772" height="80.403" fill="#E6E6E6"/>
<rect x="75.5928" y="201.007" width="36.3611" height="37.2599" fill="#E6E6E6"/>
<rect width="443.988" height="19.6105" fill="#B00E23"/>
<ellipse cx="13.3958" cy="9.80521" rx="3.82749" ry="3.9221" fill="white"/>
<ellipse cx="26.7923" cy="9.80521" rx="3.82749" ry="3.9221" fill="white"/>
<ellipse cx="41.1449" cy="9.80521" rx="3.82749" ry="3.9221" fill="white"/>
<path d="M306 329.033C308.715 352.728 451.216 350.739 451 329.032C448.285 305.339 305.784 307.328 306 329.033Z" fill="white" fill-opacity="0.05"/>
<path d="M314 326.232C316.715 349.927 459.216 347.938 459 326.231C456.285 302.538 313.784 304.527 314 326.232Z" fill="white" fill-opacity="0.05"/>
<path d="M370.777 288.905L367.283 296.096L360.878 295.543L356.801 282.819L363.207 279.5L370.777 288.905Z" fill="#FFB8B8"/>
<path d="M392.48 306.228L392.614 311.264L383.006 311.819V305.705L392.48 306.228Z" fill="#FFB8B8"/>
<path d="M388.406 213.119L386.183 258.069L391.741 306.951L375.065 309.199L364.504 247.394L361.169 205.253L388.406 213.119Z" fill="#070707"/>
<path d="M415.445 196.807C415.445 196.807 422.229 241.122 408.095 255.707C393.96 270.292 374.738 296.096 374.738 296.096L361.169 279.268L395.657 242.805L388.872 218.123L361.169 205.221L365.692 174.368L406.399 173.807L415.445 196.807Z" fill="#070707"/>
<circle r="12.6657" transform="matrix(-1 0 0 1 382.57 81.6536)" fill="#FFB8B8"/>
<path d="M393.33 83.8373C393.33 83.8373 393.874 101.245 396.594 103.491C399.315 105.737 386.8 115.283 386.8 115.283L378.638 101.806V89.4527L393.33 83.8373Z" fill="#FFB8B8"/>
<path d="M386.901 107.374L393.681 96.9398L397.512 102.252L403.097 118.188L398.629 180.226L372.381 180.795L369.03 109.651L377.408 99.4059L386.901 107.374Z" fill="#D0CDE1"/>
<path d="M358.137 111.481L353.615 110.916C353.615 110.916 352.485 111.481 351.92 115.437C351.355 119.394 344.572 154.436 344.572 154.436L353.615 197.392L363.789 183.827L357.572 160.088L363.789 136.35L358.137 111.481Z" fill="#070707"/>
<path d="M416.755 110.916H420.09L428.428 156.61L420.646 192.151L412.864 179.175L415.088 165.072L413.976 152.662L410.084 145.328L416.755 110.916Z" fill="#070707"/>
<path d="M365.702 293.941C365.702 293.941 369.03 292.807 369.03 295.076C369.03 297.345 366.811 304.151 366.811 304.151C366.811 304.151 370.14 325.138 365.147 324.004C360.155 322.869 356.272 313.227 355.718 310.391C355.163 307.554 352.389 292.807 352.389 292.807C352.389 292.807 347.952 282.03 350.725 281.463C353.499 280.895 361.265 278.626 361.265 278.626C361.265 278.626 356.827 292.807 365.702 293.941Z" fill="#070707"/>
<path d="M382.741 312.095C382.741 312.095 391.864 306.418 393.574 310.96C394.709 314.272 395.474 317.699 395.855 321.179C395.855 321.179 398.136 328.559 389.013 327.423C379.891 326.288 381.031 326.288 380.461 322.882C379.891 319.475 382.741 312.095 382.741 312.095Z" fill="#070707"/>
<path d="M389.993 81.5745L387.753 81.0004C387.753 81.0004 386.074 71.2406 382.154 72.3888C378.235 73.537 368.157 74.6853 368.157 70.0924C368.157 65.4995 377.675 61.4807 383.274 62.0548C388.873 62.629 398.392 64.3513 397.832 72.9629C397.272 81.5745 393.659 89.9518 393.659 89.9518L393.367 84.846L389.993 81.5745Z" fill="#070707"/>
<path d="M354.181 110.835L372.437 103.49L376.715 100.382L389.551 156.602L398.109 131.176L395.541 98.6868L419.217 110.835L411.23 149.257L410.089 163.948L413.512 175.813C413.512 175.813 425.492 184.289 421.498 193.329C417.505 202.369 412.941 202.934 412.941 202.934C412.941 202.934 393.545 184.854 392.404 180.333C391.263 175.813 389.551 167.903 389.551 167.903C389.551 167.903 379.853 204.065 368.443 203.499C357.033 202.934 357.033 191.069 357.033 191.069L359.886 178.638L364.45 165.643L362.168 144.172L354.181 110.835Z" fill="#070707"/>
</svg>
