<svg width="703" height="533" viewBox="0 0 703 533" fill="none" xmlns="http://www.w3.org/2000/svg">
<rect x="574" y="154" width="33" height="16" rx="8" fill="#B00E23"/>
<circle cx="591" cy="162" r="5" fill="white"/>
<rect x="572" y="327" width="33" height="16" rx="8" fill="#6C63FF"/>
<circle cx="589" cy="336" r="5" fill="white"/>
<rect x="508" y="413" width="106" height="27" rx="13.5" fill="#2F2E41"/>
<rect x="515" y="418" width="92" height="18" rx="9" fill="#2F2E41"/>
<rect x="572" y="419" width="33" height="16" rx="8" fill="#B00E23"/>
<circle cx="589" cy="427" r="5" fill="white"/>
<rect x="188" y="123" width="62" height="16" rx="8" fill="#B00E23"/>
<rect x="188" y="146" width="172" height="16" rx="8" fill="#B00E23"/>
<rect x="188" y="169" width="172" height="16" rx="8" fill="#B00E23"/>
<g opacity="0.5">
<rect x="188" y="213.084" width="61.8662" height="16.3723" rx="8.18616" fill="#E5E5E5"/>
<rect x="188" y="236.11" width="128.232" height="16.3723" rx="8.18616" fill="#E5E5E5"/>
<rect x="188" y="259.128" width="171.793" height="16.3723" rx="8.18616" fill="#E5E5E5"/>
</g>
<rect x="188" y="304" width="62" height="16" rx="8" fill="#B00E23"/>
<rect x="188" y="327" width="172" height="16" rx="8" fill="#B00E23"/>
<rect x="188" y="351" width="107" height="16" rx="8" fill="#B00E23"/>
<rect x="188" y="396" width="62" height="16" rx="8" fill="#B00E23"/>
<rect x="188" y="419" width="172" height="16" rx="8" fill="#B00E23"/>
<rect x="188" y="441" width="138" height="16" rx="8" fill="#B00E23"/>
<path opacity="0.7" d="M161 200.5H662" stroke="#3F3D56" stroke-linecap="round"/>
<path opacity="0.7" d="M161 292.5H662" stroke="#3F3D56" stroke-linecap="round"/>
<path opacity="0.7" d="M161 384.5H662" stroke="#3F3D56" stroke-linecap="round"/>
<path opacity="0.7" d="M161 479.5H662" stroke="#3F3D56" stroke-linecap="round"/>
<path d="M682 519.5C682 524.194 630.289 528 566.5 528C502.711 528 451 524.194 451 519.5C451 514.806 502.711 511 566.5 511C630.289 511 682 514.806 682 519.5Z" fill="white" fill-opacity="0.05"/>
<circle opacity="0.1" cx="16.5" cy="108.5" r="16.5" fill="#5D5D5D"/>
<circle opacity="0.1" cx="85.5" cy="16.5" r="16.5" fill="#5D5D5D"/>
<circle opacity="0.1" cx="80" cy="79" r="28" fill="#5D5D5D"/>
<rect x="156" y="129" width="62" height="16" rx="8" fill="#B00E23"/>
<path fill-rule="evenodd" clip-rule="evenodd" d="M703 114.742V472.425C703 480.014 696.775 486.167 689.097 486.167H133.903C132.605 486.168 131.313 485.987 130.067 485.629C124.103 483.945 119.994 478.555 120 472.425V312.804V310.378V133.874V113C120 106.372 125.373 101 132 101H144.745H689.097C696.775 101 703 107.152 703 114.742ZM524.419 149.146C517.167 149.146 511.288 155.025 511.288 162.276C511.288 169.528 517.167 175.407 524.419 175.407H602.37C609.622 175.407 615.501 169.528 615.501 162.276C615.501 155.025 609.622 149.146 602.37 149.146H524.419ZM509.315 247.63C509.315 240.24 515.306 234.249 522.696 234.249H601.22C608.61 234.249 614.6 240.24 614.6 247.63C614.6 255.02 608.61 261.011 601.22 261.011H522.696C515.306 261.011 509.315 255.02 509.315 247.63ZM522.696 322.463C515.306 322.463 509.315 328.453 509.315 335.843C509.315 343.233 515.306 349.224 522.696 349.224H601.22C608.61 349.224 614.6 343.233 614.6 335.843C614.6 328.453 608.61 322.463 601.22 322.463H522.696Z" fill="white"/>
<rect x="156" y="152" width="172" height="16" rx="8" fill="#B00E23"/>
<rect x="156" y="175" width="172" height="16" rx="8" fill="#B00E23"/>
<g opacity="0.5">
<rect x="156" y="219.084" width="61.8662" height="16.3723" rx="8.18616" fill="#E5E5E5"/>
<rect x="156" y="242.11" width="128.232" height="16.3723" rx="8.18616" fill="#E5E5E5"/>
<rect x="156" y="265.128" width="171.793" height="16.3723" rx="8.18616" fill="#E5E5E5"/>
</g>
<rect x="156" y="310" width="62" height="16" rx="8" fill="#B00E23"/>
<rect x="156" y="333" width="172" height="16" rx="8" fill="#B00E23"/>
<rect x="156" y="357" width="107" height="16" rx="8" fill="#B00E23"/>
<rect x="156" y="402" width="62" height="16" rx="8" fill="#B00E23"/>
<rect x="156" y="425" width="172" height="16" rx="8" fill="#B00E23"/>
<rect x="156" y="447" width="138" height="16" rx="8" fill="#B00E23"/>
<path opacity="0.7" d="M129 206.5H630" stroke="#3F3D56" stroke-linecap="round"/>
<path opacity="0.7" d="M129 298.5H630" stroke="#3F3D56" stroke-linecap="round"/>
<path opacity="0.7" d="M129 390.5H630" stroke="#3F3D56" stroke-linecap="round"/>
<path d="M555.087 241.349C554.701 239.562 554.418 237.706 553.42 236.174C552.736 235.213 551.909 234.357 550.967 233.637C549.442 232.242 547.659 231.147 545.715 230.412C543.74 229.682 541.528 229.932 539.772 231.085C538.113 232.322 537.413 234.442 537.154 236.499C536.72 239.297 537.21 242.157 538.553 244.66C540.165 247.413 542.948 249.254 545.283 251.451C546.979 253.06 548.454 254.88 549.67 256.866C550.224 257.895 550.894 258.86 551.667 259.743C552.459 260.62 553.623 261.081 554.811 260.988C555.792 260.733 556.681 260.217 557.382 259.495C558.341 258.668 560.92 257.175 560.999 255.883C561.061 254.823 559.049 252.426 558.554 251.428C557.041 248.197 555.879 244.819 555.087 241.349Z" fill="#FBBEBE"/>
<path opacity="0.1" d="M555.087 241.349C554.701 239.562 554.418 237.706 553.42 236.174C552.736 235.213 551.909 234.357 550.967 233.637C549.442 232.242 547.659 231.147 545.715 230.412C543.74 229.682 541.528 229.932 539.772 231.085C538.113 232.322 537.413 234.442 537.154 236.499C536.72 239.297 537.21 242.157 538.553 244.66C540.165 247.413 542.948 249.254 545.283 251.451C546.979 253.06 548.454 254.88 549.67 256.866C550.224 257.895 550.894 258.86 551.667 259.743C552.459 260.62 553.623 261.081 554.811 260.988C555.792 260.733 556.681 260.217 557.382 259.495C558.341 258.668 560.92 257.175 560.999 255.883C561.061 254.823 559.049 252.426 558.554 251.428C557.041 248.197 555.879 244.819 555.087 241.349Z" fill="#22222C"/>
<path d="M607 291.96C603.009 290.889 598.888 290.379 594.756 290.445C587.862 290.543 580.764 292.218 574.195 290.096C572.505 289.52 570.861 288.819 569.276 287.998C567.918 287.416 566.672 286.598 565.598 285.582C562.329 282.12 560.922 276.9 559.908 272.249C559.012 267.569 558.493 262.824 558.356 258.06C556.654 258.856 554.852 259.636 552.983 259.477C551.114 259.318 549.2 257.879 549.2 256C549.48 260.409 549.684 264.871 548.95 269.219C548.662 270.946 548.193 272.651 548.064 274.393C547.504 280.703 550.811 287.006 549.631 293.225C549.225 295.139 550.088 297.098 551.773 298.088C553.468 299.005 555.458 299.119 557.319 299.603C560.975 300.535 564.13 302.861 567.838 303.732C569.541 304.133 571.319 304.209 573.014 304.664C575.428 305.308 577.631 306.694 580.098 307.126C581.944 307.459 583.881 307.232 585.72 307.391C587.347 307.527 588.936 307.951 590.571 307.997C594.567 308.095 598.335 305.838 600.984 302.838C603.632 299.838 605.32 295.573 607 291.96Z" fill="#E6E6E6"/>
<path opacity="0.1" d="M607 291.96C603.009 290.889 598.888 290.379 594.756 290.445C587.862 290.543 580.764 292.218 574.195 290.096C572.505 289.52 570.861 288.819 569.276 287.998C567.918 287.416 566.672 286.598 565.598 285.582C562.329 282.12 560.922 276.9 559.908 272.249C559.012 267.569 558.493 262.824 558.356 258.06C556.654 258.856 554.852 259.636 552.983 259.477C551.114 259.318 549.2 257.879 549.2 256C549.48 260.409 549.684 264.871 548.95 269.219C548.662 270.946 548.193 272.651 548.064 274.393C547.504 280.703 550.811 287.006 549.631 293.225C549.225 295.139 550.088 297.098 551.773 298.088C553.468 299.005 555.458 299.119 557.319 299.603C560.975 300.535 564.13 302.861 567.838 303.732C569.541 304.133 571.319 304.209 573.014 304.664C575.428 305.308 577.631 306.694 580.098 307.126C581.944 307.459 583.881 307.232 585.72 307.391C587.347 307.527 588.936 307.951 590.571 307.997C594.567 308.095 598.335 305.838 600.984 302.838C603.632 299.838 605.32 295.573 607 291.96Z" fill="black" fill-opacity="0.35"/>
<path d="M618.263 489.504C619.506 489.66 620.71 490.041 621.819 490.628C623.265 491.667 624.347 493.144 624.909 494.845C626.569 498.986 626.912 503.541 626.988 508.013C627.049 511.622 626.927 515.316 625.648 518.686C625.298 519.75 624.694 520.71 623.889 521.48C623.175 522.045 622.35 522.45 621.468 522.665C619.558 523.196 617.35 523.188 615.789 521.957C614.054 520.587 613.62 518.163 613.254 515.97C612.759 513.015 612.059 509.867 609.882 507.828C608.268 506.289 605.954 505.519 604.781 503.657C603.381 501.417 604.119 498.493 605.01 496C605.771 493.837 606.92 489.458 609.159 488.35C611.397 487.242 615.942 489.081 618.263 489.504Z" fill="#FBBEBE"/>
<path d="M534.665 500.365C535.338 502.852 536.532 505.154 538.161 507.106C539.153 508.294 540.397 509.736 539.878 511.209C539.659 511.71 539.339 512.155 538.939 512.516C531.566 519.993 521.254 523.605 511.027 524.967C510.864 525.011 510.693 525.011 510.53 524.967C510.233 524.832 510.156 524.436 510.126 524.096C509.958 522.991 509.958 521.866 510.126 520.761C510.622 518.171 512.813 516.341 514.957 514.908C517.102 513.474 519.445 512.096 520.636 509.759C522.124 506.86 521.499 503.082 523.269 500.365C524.704 498.156 527.376 497.197 529.917 496.801C530.795 496.659 532.665 495.661 533.413 496.12C534.161 496.579 534.405 499.455 534.665 500.365Z" fill="#FBBEBE"/>
<path d="M619.341 489.039C619.341 488.521 619.718 488.083 620.223 488.016C620.714 487.967 621.211 488.03 621.675 488.202C622.817 488.526 623.984 488.746 625.164 488.861C626.579 488.911 627.988 489.08 629.376 489.365C630.782 489.665 631.98 490.596 632.637 491.899C632.908 492.669 633.029 493.485 632.994 494.302C633.025 497.436 632.66 500.562 631.907 503.602C631.846 503.834 631.755 504.105 631.535 504.191C631.314 504.276 631.154 504.191 630.98 504.276C630.82 504.366 630.703 504.516 630.653 504.694C629.917 506.681 629.488 508.773 629.383 510.894C629.049 513.995 628.623 517.141 628.114 520.241C627.817 522.055 627.445 523.961 626.274 525.356C624.989 526.906 622.96 527.549 620.998 527.821C616.863 528.379 612.69 527.534 608.607 526.666C607.828 526.587 607.094 526.252 606.517 525.713C606.142 525.236 605.96 524.632 606.007 524.023C606.099 521.938 607.984 520.466 609.679 519.303L612.028 517.699C612.192 517.606 612.332 517.476 612.439 517.319C612.554 517.079 612.594 516.808 612.553 516.544L612.401 513.444C615.57 513.502 618.452 515.33 619.904 518.203C620.223 518.862 620.535 519.629 621.204 519.885C622.108 520.095 623.013 519.536 623.248 518.621C623.45 517.733 623.426 516.808 623.18 515.932C621.804 508.438 622.131 500.734 621.295 493.162C621.241 492.309 620.98 491.484 620.535 490.76C620.177 490.24 619.425 489.737 619.341 489.039Z" fill="#131313"/>
<rect x="549" y="255" width="33" height="16" rx="8" transform="rotate(180 549 255)" fill="#B00E23"/>
<path d="M530.5 247C530.5 249.761 528.261 252 525.5 252C522.739 252 520.5 249.761 520.5 247C520.5 244.239 522.739 242 525.5 242C528.261 242 530.5 244.239 530.5 247Z" fill="white"/>
<rect x="549" y="343" width="33" height="16" rx="8" transform="rotate(180 549 343)" fill="#B00E23"/>
<circle cx="450" cy="260" r="5" fill="white"/>
<path d="M516.645 519.017C516.293 519.603 515.738 520.057 515.41 520.659C515.025 521.251 515.138 522.037 515.675 522.496C516.027 522.65 516.418 522.688 516.793 522.606C524.342 521.663 531.428 518.451 537.115 513.395C538.061 512.598 538.899 511.68 539.608 510.666C540.272 509.658 540.835 508.422 541.953 508C542.633 510.936 542.984 513.939 543 516.953C543 518.939 542.719 521.198 541.101 522.348C540.451 522.752 539.738 523.043 538.99 523.208L535.458 524.209C534.832 524.444 534.155 524.509 533.496 524.396C533.082 524.287 532.714 524.021 532.284 523.943C531.818 523.893 531.347 523.955 530.909 524.123L527.853 525.014C526.82 525.282 525.811 525.635 524.836 526.069C523.96 526.484 523.155 527.016 522.303 527.477C520.878 528.192 519.399 528.793 517.88 529.275L512.51 531.144C511.039 531.719 509.504 532.113 507.938 532.317C506.859 532.411 505.757 532.317 504.686 532.497C503.905 532.637 503.123 532.934 502.263 532.997C500.907 533.039 499.572 532.644 498.457 531.871C498.022 531.625 497.643 531.289 497.347 530.886C496.565 529.69 497.245 528.11 497.996 526.898C499.318 524.596 501.2 522.665 503.467 521.284C504.405 520.768 505.413 520.393 506.374 519.924C509.118 518.595 511.189 516.374 513.776 514.857C516.223 513.426 517.794 517.125 516.645 519.017Z" fill="#131313"/>
<path d="M591 305.083C593.745 306.996 596.888 308.238 600.183 308.711C601.906 308.928 603.643 309.023 605.379 308.995C612.623 308.988 619.855 308.374 627 307.162C624.16 303.978 621.283 300.572 620.203 296.422C619.67 294.222 619.557 291.938 619.871 289.695C620.306 286.828 620.984 284.005 621.895 281.256C618.848 281.419 615.792 281.339 612.757 281.018C611.028 280.834 606.784 279.239 605.281 280.451C603.778 281.663 604.933 285.567 604.956 287.401C604.96 287.467 604.96 287.534 604.956 287.6C604.883 290.393 604.291 293.147 603.211 295.716C601.052 300.672 596.369 304.753 591 305.083Z" fill="#FBBEBE"/>
<path opacity="0.1" d="M604.436 288.109C608.747 290.923 614.068 291.73 619.021 290.322C619.447 287.565 620.109 284.851 621 282.208C618.02 282.364 615.032 282.288 612.064 281.979C610.373 281.802 606.223 280.268 604.753 281.433C603.284 282.599 604.414 286.346 604.436 288.109Z" fill="#22222C"/>
<circle cx="614" cy="271" r="18" fill="#FBBEBE"/>
<path d="M537 365.676C536.987 368.72 538.577 371.547 541.185 373.116C542.612 373.866 544.141 374.405 545.724 374.717C554.185 376.763 562.893 378.41 571.609 377.91C573.499 377.894 575.366 377.501 577.102 376.756C578.855 375.979 580.12 374.397 580.494 372.516C580.503 372.056 580.591 371.6 580.756 371.17C581.094 370.697 581.533 370.306 582.04 370.023C583.66 368.804 584.435 366.763 584.033 364.776C585.087 365.253 586.194 364.184 586.694 363.137C587.195 362.091 587.579 360.829 588.641 360.375C589.364 360.067 590.179 360.252 590.949 360.052C592.172 359.737 592.918 358.513 593.779 357.628C595.533 355.751 598.033 354.782 600.326 353.62C607.157 350.181 612.719 344.726 618.173 339.363C621.008 336.75 623.584 333.87 625.865 330.761C626.476 329.867 627.041 328.943 627.558 327.991C629.201 324.833 630.628 321.565 631.827 318.212C632.52 316.412 633.22 314.519 632.935 312.611C632.935 312.442 632.873 312.273 632.835 312.096C632.479 310.871 631.909 309.72 631.15 308.695C629.266 305.925 626.796 303.309 623.55 302.448C620.304 301.586 617.073 302.624 613.773 303.325C612.68 303.569 611.573 303.739 610.457 303.832C606.965 304.079 603.534 303.14 600.134 302.209L596.456 301.193C594.618 300.686 593.695 298.462 591.841 298.07C591.007 297.944 590.157 297.989 589.341 298.2C585.564 298.916 581.748 299.847 578.417 301.77C577.673 302.196 576.963 302.68 576.294 303.217C573.877 305.022 572.137 307.589 571.355 310.503C570.586 313.711 571.309 317.143 570.54 320.351C569.909 322.998 568.317 325.306 566.763 327.537L557.701 340.517C555.681 343.558 553.455 346.458 551.039 349.196C546.162 354.497 537.131 358.482 537 365.676Z" fill="#E6E6E6"/>
<path d="M560.087 241.349C559.701 239.562 559.418 237.706 558.42 236.174C557.736 235.213 556.909 234.357 555.967 233.637C554.442 232.242 552.659 231.147 550.715 230.412C548.74 229.682 546.528 229.932 544.772 231.085C543.113 232.322 542.413 234.442 542.154 236.499C541.72 239.297 542.21 242.157 543.553 244.66C545.126 247.413 547.948 249.254 550.283 251.451C551.979 253.06 553.454 254.88 554.67 256.866C555.224 257.895 555.894 258.86 556.667 259.743C557.459 260.62 558.623 261.081 559.811 260.988C560.792 260.733 561.681 260.217 562.382 259.495C563.341 258.668 565.92 257.175 565.999 255.883C566.061 254.823 564.049 252.426 563.554 251.428C562.041 248.197 560.879 244.819 560.087 241.349Z" fill="#FBBEBE"/>
<path d="M494.717 456.8C497.015 461.089 499.574 465.225 501.65 469.667C502.853 472.248 503.895 474.898 505.235 477.41C506.699 480.144 508.499 482.687 510.031 485.383C513.862 492.2 516.03 499.889 518.014 507.464C523.559 506.639 528.895 504.762 533.735 501.934C534.06 501.75 534.375 501.548 534.677 501.329C535.973 500.403 537.054 499.209 537.849 497.829C536.018 490.936 534.141 483.867 530.41 477.747C529.192 475.756 527.797 473.917 526.579 471.918C522.955 466.213 522.205 459.021 518.06 453.682C517.248 452.58 517.248 451.078 518.06 449.975C518.535 449.355 519.301 448.765 519.156 447.992C519.048 447.433 518.466 446.927 518.688 446.406C518.795 446.154 519.056 446.016 519.255 445.832C519.96 445.189 519.868 444.078 519.937 443.128C520.09 440.708 521.538 438.587 522.94 436.611C523.225 436.145 523.6 435.742 524.043 435.423C524.419 435.194 524.863 435.086 525.238 434.857C526.556 434.037 526.464 432.107 527.1 430.675C527.928 428.791 530.011 427.833 531.383 426.309C533.122 424.364 533.558 421.66 535.397 419.96C535.587 419.782 535.789 419.618 536.002 419.47C535.205 422.364 534.841 425.361 534.922 428.362C534.746 438.656 537.32 449.301 536.117 459.526C535.167 467.629 540.162 475.717 547.241 479.777C550.018 481.242 552.917 482.462 555.906 483.422C560.334 484.992 564.762 486.608 569.106 488.424C572.17 489.695 575.235 491.074 578.192 492.536C581.873 494.32 585.454 496.304 588.918 498.48C593.185 501.191 597.46 503.948 600.486 508C603.42 507.923 606.109 506.162 607.963 503.887C609.817 501.612 610.974 498.863 612.054 496.144C612.996 493.793 613.931 491.38 614 488.845C614.002 488.289 613.687 487.781 613.188 487.535L592.917 476.813L589.086 474.806C580.789 470.402 572.232 466.327 563.889 461.931C563.329 462.092 562.87 461.456 562.709 460.905C562.548 460.353 562.433 459.664 561.904 459.419C561.636 459.296 561.299 459.296 561.138 459.082C561.007 458.884 560.957 458.642 561 458.408C561.269 454.395 564.165 450.703 563.582 446.728C563.337 445.028 562.456 443.358 562.816 441.696C563.084 440.54 563.912 439.605 564.348 438.51C565.337 436.059 564.348 433.149 565.436 430.721C566.162 429.146 566.655 427.474 566.9 425.758C567.422 422.34 568.468 419.023 570.002 415.924C570.736 414.352 571.696 412.897 572.852 411.604C573.465 410.953 574.147 410.363 574.722 409.689C576.491 407.598 577.135 404.81 577.64 402.122C578.544 397.243 579.173 392.165 578.039 387.348C577.656 385.701 577.073 384.07 577.096 382.377C577.096 380.148 578.1 377.537 576.553 375.921C575.9 375.341 575.108 374.94 574.254 374.757C570.65 373.785 566.974 373.106 563.261 372.727L546.36 370.529C544.408 370.4 542.497 369.904 540.729 369.066C538.431 367.802 536.899 365.451 535.979 363C533.007 365.167 531.888 369.204 529.521 372.007C528.364 373.378 526.939 374.481 525.69 375.737C524.139 377.365 522.719 379.114 521.446 380.968C517.914 385.816 514.36 390.703 511.832 396.133C510.521 398.959 509.533 401.908 508.445 404.833C504.316 416.376 497.582 427.328 494.786 439.253C494.096 442.171 492.311 444.798 492.043 447.785C491.729 450.948 493.192 454.012 494.717 456.8Z" fill="#131313"/>
<path opacity="0.1" d="M583.405 360.238C583.799 361.088 584.003 362.037 584 363C583.64 360.933 581.172 359.789 581.018 357.748C580.944 356.807 581.091 356.85 581.598 357.349C582.369 358.086 582.7 359.425 583.405 360.238Z" fill="#22222C"/>
<path opacity="0.1" d="M576.552 365.673C577.051 366.191 577.425 366.863 577.636 367.618C578.033 368.68 578.108 369.877 577.848 371C577.501 370.802 577.381 370.286 577.275 369.83C577.114 369.125 576.876 368.451 576.566 367.824C576.283 367.282 574.986 365.991 575 365.397C574.979 364.502 576.205 365.354 576.552 365.673Z" fill="#22222C"/>
<path opacity="0.1" d="M576 303.248C577.184 304.263 578.487 305.13 579.879 305.83C583.53 307.679 587.57 308.649 591.243 310.413C593.054 311.334 594.814 312.354 596.512 313.469C600.155 315.761 603.79 318.052 607.425 320.382C608.301 320.887 609.109 321.501 609.831 322.208C611.144 323.613 611.137 326.027 612.336 327.555C613.675 329.082 615.598 329.97 617.628 329.999C619.639 330.016 621.637 329.68 623.531 329.006C624.681 328.666 625.808 328.255 626.907 327.776C628.056 327.292 629.143 326.671 630.145 325.928C632.167 324.506 633.541 322.337 633.963 319.901C634.095 318.234 633.873 316.557 633.314 314.981C633.011 313.955 632.623 312.956 632.153 311.995C631.884 311.449 631.573 310.925 631.221 310.429C628.717 306.877 624.303 305.204 620.034 304.371C617.781 303.936 615.49 303.668 613.229 303.286C612.145 303.53 611.045 303.698 609.938 303.791C606.471 304.035 603.065 303.103 599.689 302.179L596.039 301.171C594.214 300.666 593.297 298.459 591.457 298.069C590.629 297.944 589.785 297.989 588.975 298.199C585.225 298.909 581.437 299.834 578.131 301.743C577.381 302.187 576.669 302.69 576 303.248H576Z" fill="#22222C"/>
<path d="M567.101 253C567.567 257.487 571.325 260.781 573.616 264.652C574.732 266.538 575.511 268.6 576.512 270.547C577.655 272.678 578.931 274.735 580.331 276.704L584.418 282.684C586.824 286.201 589.253 289.749 592.324 292.689C597.671 293.605 602.178 297.615 607.258 299.562C611.329 301.101 615.76 301.332 620.03 302.171C624.3 303.01 628.715 304.688 631.221 308.274C632.158 309.692 632.864 311.25 633.314 312.892C633.873 314.477 634.095 316.163 633.963 317.841C633.543 320.298 632.168 322.486 630.144 323.921C628.134 325.324 625.899 326.365 623.536 326.999C621.64 327.674 619.642 328.013 617.631 328C615.599 327.968 613.674 327.074 612.33 325.537C611.138 323.998 611.146 321.542 609.832 320.149C609.11 319.437 608.301 318.819 607.426 318.31L596.51 311.383C594.811 310.26 593.051 309.232 591.239 308.305C587.565 306.496 583.524 305.519 579.873 303.687C576.221 301.856 572.822 298.754 572.104 294.698C569.881 282.238 561.318 271.733 554 261.443C554.237 261.397 554.168 260.842 554.252 260.612C555.312 258.196 557.214 256.257 559.599 255.163C561.952 253.877 564.564 253.546 567.101 253Z" fill="#E6E6E6"/>
<path d="M605.035 253.631C604.898 252.277 605.164 250.912 605.797 249.711C607.008 247.673 609.537 246.956 611.837 246.477C614.137 245.999 616.255 245.628 618.479 245.304C620.289 244.936 622.149 244.902 623.971 245.204C626.454 245.76 628.541 247.45 630.827 248.492C633.569 249.734 636.616 250.035 639.541 250.745C642.466 251.455 645.474 252.589 647.31 255.005C648.704 256.834 649.26 259.172 649.679 261.449C653.16 280.457 649.412 299.951 648.704 319.268C648.422 326.785 648.757 334.818 653 341L640.653 340.668C637.492 340.583 634.094 340.413 631.611 338.438C629.417 336.701 628.381 333.9 627.452 331.253C626.611 329.197 626.077 327.025 625.868 324.809C625.677 320.271 628.222 315.818 627.391 311.35C626.774 308.016 624.344 305.315 621.816 303.131C619.287 300.947 616.407 299.041 614.328 296.378C610.634 291.632 609.925 285.157 610.382 279.13C610.656 275.549 611.296 271.96 610.984 268.379C610.828 265.639 609.853 263.012 608.188 260.847C606.246 258.47 605.218 256.988 605.035 253.631Z" fill="#131313"/>
<path opacity="0.1" d="M605.802 250.187C606.99 248.19 609.457 247.468 611.719 247C610.519 247.425 609.489 248.234 608.787 249.304C608.158 250.503 607.893 251.862 608.025 253.212C608.193 256.552 609.221 258.026 611.185 260.391C612.856 262.543 613.834 265.158 613.988 267.885C614.292 271.448 613.66 275.011 613.386 278.582C612.922 284.571 613.63 291.021 617.331 295.743C619.402 298.392 622.258 300.281 624.817 302.462C627.375 304.642 629.774 307.322 630.391 310.639C631.213 315.077 628.67 319.516 628.868 324.031C629.069 326.233 629.601 328.392 630.444 330.434C631.381 333.076 632.416 335.863 634.602 337.591C637.084 339.556 640.488 339.725 643.649 339.81L652.391 340.04C652.581 340.363 652.787 340.685 653 341L640.656 340.67C637.496 340.585 634.099 340.416 631.617 338.451C629.424 336.723 628.388 333.936 627.459 331.302C626.618 329.256 626.084 327.095 625.875 324.891C625.685 320.376 628.228 315.945 627.398 311.499C626.781 308.182 624.352 305.495 621.824 303.322C619.296 301.149 616.417 299.252 614.338 296.603C610.645 291.881 609.937 285.438 610.394 279.442C610.668 275.879 611.307 272.308 610.995 268.745C610.839 266.019 609.864 263.406 608.2 261.251C606.236 258.886 605.208 257.412 605.032 254.072C604.901 252.729 605.169 251.376 605.802 250.187Z" fill="#22222C"/>
<path opacity="0.1" d="M513 444.728L535.827 500C537.123 499.079 538.205 497.891 539 496.518C537.168 489.662 535.29 482.63 531.557 476.543C530.338 474.562 528.943 472.734 527.725 470.745C524.099 465.07 523.348 457.916 519.201 452.606C518.388 451.509 518.388 450.015 519.201 448.919C519.676 448.301 520.443 447.715 520.297 446.945C520.19 446.389 519.607 445.886 519.83 445.368C519.937 445.117 520.198 444.98 520.397 444.797C521.102 444.157 521.01 443.052 521.079 442.108C521.232 439.7 522.681 437.59 524.084 435.624C524.369 435.162 524.744 434.76 525.188 434.444C525.563 434.215 526.008 434.108 526.383 433.88C527.702 433.065 527.61 431.145 528.246 429.72C529.074 427.846 531.159 426.894 532.531 425.378C534.271 423.443 534.708 420.753 536.547 419.062L536.708 418.666L534.983 408L513 444.728Z" fill="#22222C"/>
<circle cx="526" cy="335" r="5" fill="white"/>
</svg>
