<svg width="286" height="138" viewBox="0 0 286 138" fill="none" xmlns="http://www.w3.org/2000/svg">
<g filter="url(#filter0_d)">
<rect width="286" height="137.28" rx="11.44" fill="white"/>
</g>
<path d="M136.722 75H135.228V63.4775H131.158V62.1504H140.791V63.4775H136.722V75ZM150.828 70.1748C150.828 71.7451 150.433 72.9727 149.642 73.8574C148.851 74.7363 147.758 75.1758 146.363 75.1758C145.502 75.1758 144.737 74.9736 144.069 74.5693C143.401 74.165 142.886 73.585 142.522 72.8291C142.159 72.0732 141.978 71.1885 141.978 70.1748C141.978 68.6045 142.37 67.3828 143.155 66.5098C143.94 65.6309 145.03 65.1914 146.425 65.1914C147.772 65.1914 148.842 65.6396 149.633 66.5361C150.43 67.4326 150.828 68.6455 150.828 70.1748ZM143.489 70.1748C143.489 71.4053 143.735 72.3428 144.228 72.9873C144.72 73.6318 145.443 73.9541 146.398 73.9541C147.354 73.9541 148.077 73.6348 148.569 72.9961C149.067 72.3516 149.316 71.4111 149.316 70.1748C149.316 68.9502 149.067 68.0215 148.569 67.3887C148.077 66.75 147.348 66.4307 146.381 66.4307C145.426 66.4307 144.705 66.7441 144.219 67.3711C143.732 67.998 143.489 68.9326 143.489 70.1748ZM156.506 73.9717C156.764 73.9717 157.013 73.9541 157.253 73.9189C157.493 73.8779 157.684 73.8369 157.824 73.7959V74.9121C157.666 74.9883 157.432 75.0498 157.121 75.0967C156.816 75.1494 156.541 75.1758 156.295 75.1758C154.432 75.1758 153.5 74.1943 153.5 72.2314V66.501H152.12V65.7979L153.5 65.1914L154.115 63.1348H154.959V65.3672H157.754V66.501H154.959V72.1699C154.959 72.75 155.097 73.1953 155.372 73.5059C155.647 73.8164 156.025 73.9717 156.506 73.9717ZM165.682 75L165.392 73.6289H165.321C164.841 74.2324 164.36 74.6426 163.88 74.8594C163.405 75.0703 162.811 75.1758 162.096 75.1758C161.141 75.1758 160.391 74.9297 159.846 74.4375C159.307 73.9453 159.037 73.2451 159.037 72.3369C159.037 70.3916 160.593 69.3721 163.704 69.2783L165.339 69.2256V68.6279C165.339 67.8721 165.175 67.3154 164.847 66.958C164.524 66.5947 164.006 66.4131 163.291 66.4131C162.488 66.4131 161.58 66.6592 160.566 67.1514L160.118 66.0352C160.593 65.7773 161.111 65.5752 161.674 65.4287C162.242 65.2822 162.811 65.209 163.379 65.209C164.527 65.209 165.377 65.4639 165.928 65.9736C166.484 66.4834 166.763 67.3008 166.763 68.4258V75H165.682ZM162.386 73.9717C163.294 73.9717 164.006 73.7227 164.521 73.2246C165.043 72.7266 165.304 72.0293 165.304 71.1328V70.2627L163.845 70.3242C162.685 70.3652 161.847 70.5469 161.331 70.8691C160.821 71.1855 160.566 71.6807 160.566 72.3545C160.566 72.8818 160.725 73.2832 161.041 73.5586C161.363 73.834 161.812 73.9717 162.386 73.9717ZM171.236 75H169.777V61.3242H171.236V75ZM188.929 62.1504V70.4648C188.929 71.9297 188.486 73.0811 187.602 73.9189C186.717 74.7568 185.501 75.1758 183.954 75.1758C182.407 75.1758 181.209 74.7539 180.359 73.9102C179.516 73.0664 179.094 71.9062 179.094 70.4297V62.1504H180.588V70.5352C180.588 71.6074 180.881 72.4307 181.467 73.0049C182.053 73.5791 182.914 73.8662 184.051 73.8662C185.135 73.8662 185.97 73.5791 186.556 73.0049C187.142 72.4248 187.435 71.5957 187.435 70.5176V62.1504H188.929ZM198.333 72.3721C198.333 73.2686 197.999 73.96 197.331 74.4463C196.663 74.9326 195.726 75.1758 194.519 75.1758C193.241 75.1758 192.245 74.9736 191.53 74.5693V73.2158C191.993 73.4502 192.488 73.6348 193.016 73.7695C193.549 73.9043 194.062 73.9717 194.554 73.9717C195.315 73.9717 195.901 73.8516 196.312 73.6113C196.722 73.3652 196.927 72.9932 196.927 72.4951C196.927 72.1201 196.763 71.8008 196.435 71.5371C196.112 71.2676 195.479 70.9512 194.536 70.5879C193.64 70.2539 193.001 69.9639 192.62 69.7178C192.245 69.4658 191.964 69.1816 191.776 68.8652C191.595 68.5488 191.504 68.1709 191.504 67.7314C191.504 66.9463 191.823 66.3281 192.462 65.877C193.101 65.4199 193.977 65.1914 195.09 65.1914C196.127 65.1914 197.141 65.4023 198.131 65.8242L197.612 67.0107C196.646 66.6123 195.77 66.4131 194.984 66.4131C194.293 66.4131 193.771 66.5215 193.42 66.7383C193.068 66.9551 192.893 67.2539 192.893 67.6348C192.893 67.8926 192.957 68.1123 193.086 68.2939C193.221 68.4756 193.435 68.6484 193.728 68.8125C194.021 68.9766 194.583 69.2139 195.415 69.5244C196.558 69.9404 197.328 70.3594 197.727 70.7812C198.131 71.2031 198.333 71.7334 198.333 72.3721ZM204.784 75.1758C203.36 75.1758 202.235 74.7422 201.409 73.875C200.589 73.0078 200.179 71.8037 200.179 70.2627C200.179 68.71 200.56 67.4766 201.321 66.5625C202.089 65.6484 203.117 65.1914 204.406 65.1914C205.613 65.1914 206.568 65.5898 207.271 66.3867C207.975 67.1777 208.326 68.2236 208.326 69.5244V70.4473H201.69C201.72 71.5781 202.004 72.4365 202.543 73.0225C203.088 73.6084 203.853 73.9014 204.837 73.9014C205.874 73.9014 206.899 73.6846 207.913 73.251V74.5518C207.397 74.7744 206.908 74.9326 206.445 75.0264C205.988 75.126 205.435 75.1758 204.784 75.1758ZM204.389 66.4131C203.615 66.4131 202.997 66.665 202.534 67.1689C202.077 67.6729 201.808 68.3701 201.726 69.2607H206.762C206.762 68.3408 206.557 67.6377 206.146 67.1514C205.736 66.6592 205.15 66.4131 204.389 66.4131ZM215.217 65.1914C215.645 65.1914 216.028 65.2266 216.368 65.2969L216.166 66.6504C215.768 66.5625 215.416 66.5186 215.111 66.5186C214.332 66.5186 213.664 66.835 213.107 67.4678C212.557 68.1006 212.281 68.8887 212.281 69.832V75H210.822V65.3672H212.026L212.193 67.1514H212.264C212.621 66.5244 213.052 66.041 213.556 65.7012C214.06 65.3613 214.613 65.1914 215.217 65.1914ZM224.384 72.3721C224.384 73.2686 224.05 73.96 223.382 74.4463C222.714 74.9326 221.776 75.1758 220.569 75.1758C219.292 75.1758 218.296 74.9736 217.581 74.5693V73.2158C218.044 73.4502 218.539 73.6348 219.066 73.7695C219.6 73.9043 220.112 73.9717 220.604 73.9717C221.366 73.9717 221.952 73.8516 222.362 73.6113C222.772 73.3652 222.978 72.9932 222.978 72.4951C222.978 72.1201 222.813 71.8008 222.485 71.5371C222.163 71.2676 221.53 70.9512 220.587 70.5879C219.69 70.2539 219.052 69.9639 218.671 69.7178C218.296 69.4658 218.015 69.1816 217.827 68.8652C217.646 68.5488 217.555 68.1709 217.555 67.7314C217.555 66.9463 217.874 66.3281 218.513 65.877C219.151 65.4199 220.027 65.1914 221.141 65.1914C222.178 65.1914 223.191 65.4023 224.182 65.8242L223.663 67.0107C222.696 66.6123 221.82 66.4131 221.035 66.4131C220.344 66.4131 219.822 66.5215 219.471 66.7383C219.119 66.9551 218.943 67.2539 218.943 67.6348C218.943 67.8926 219.008 68.1123 219.137 68.2939C219.271 68.4756 219.485 68.6484 219.778 68.8125C220.071 68.9766 220.634 69.2139 221.466 69.5244C222.608 69.9404 223.379 70.3594 223.777 70.7812C224.182 71.2031 224.384 71.7334 224.384 72.3721Z" fill="#959595"/>
<circle opacity="0.1" cx="68.32" cy="68.32" r="34.32" fill="#B00E23"/>
<defs>
<filter id="filter0_d" x="-39" y="-22" width="364" height="215.28" filterUnits="userSpaceOnUse" color-interpolation-filters="sRGB">
<feFlood flood-opacity="0" result="BackgroundImageFix"/>
<feColorMatrix in="SourceAlpha" type="matrix" values="0 0 0 0 0 0 0 0 0 0 0 0 0 0 0 0 0 0 127 0"/>
<feOffset dy="17"/>
<feGaussianBlur stdDeviation="19.5"/>
<feColorMatrix type="matrix" values="0 0 0 0 0 0 0 0 0 0 0 0 0 0 0 0 0 0 0.05 0"/>
<feBlend mode="normal" in2="BackgroundImageFix" result="effect1_dropShadow"/>
<feBlend mode="normal" in="SourceGraphic" in2="effect1_dropShadow" result="shape"/>
</filter>
</defs>
</svg>
