<svg width="482" height="326" viewBox="0 0 482 326" fill="none" xmlns="http://www.w3.org/2000/svg">
<rect x="55" y="75" width="1" height="68" fill="white"/>
<rect x="55" y="163" width="1" height="61" fill="white"/>
<rect x="53" y="234" width="99" height="1" fill="white"/>
<rect x="11" y="251" width="1" height="54" fill="white"/>
<rect x="22" y="315" width="151" height="1" fill="white"/>
<rect x="297" y="32" width="1" height="65" fill="white"/>
<rect x="193" y="106" width="95" height="1" fill="white"/>
<rect x="182" y="117" width="1" height="86" fill="white"/>
<path fill-rule="evenodd" clip-rule="evenodd" d="M45 153.5C45 159.299 49.701 164 55.5 164C61.2963 163.994 65.9935 159.296 66 153.5C66 147.701 61.299 143 55.5 143C49.701 143 45 147.701 45 153.5ZM46.2353 153.5C46.2353 148.383 50.3832 144.235 55.5 144.235C60.6144 144.241 64.759 148.386 64.7647 153.5C64.7647 158.617 60.6168 162.765 55.5 162.765C50.3832 162.765 46.2353 158.617 46.2353 153.5Z" fill="white"/>
<path fill-rule="evenodd" clip-rule="evenodd" d="M2 315.5C2 321.299 6.70101 326 12.5 326C18.2963 325.994 22.9935 321.296 23 315.5C23 309.701 18.299 305 12.5 305C6.70101 305 2 309.701 2 315.5ZM3.23529 315.5C3.23529 310.383 7.38324 306.235 12.5 306.235C17.6144 306.241 21.759 310.386 21.7647 315.5C21.7647 320.617 17.6168 324.765 12.5 324.765C7.38324 324.765 3.23529 320.617 3.23529 315.5Z" fill="white"/>
<circle cx="57" cy="234" r="10" fill="#B00E23"/>
<rect x="321" y="153" width="106" height="1" fill="white"/>
<rect x="310" y="163" width="1" height="61" fill="white"/>
<rect x="214" y="234" width="85" height="1" fill="white"/>
<rect x="364" y="239" width="88" height="1" fill="white"/>
<rect x="353" y="251" width="1" height="54" fill="white"/>
<rect x="193" y="315" width="151" height="1" fill="white"/>
<rect x="182" y="266" width="1" height="39" fill="white"/>
<circle cx="310" cy="153" r="10" fill="#B00E23"/>
<path fill-rule="evenodd" clip-rule="evenodd" d="M287 106.5C287 112.299 291.701 117 297.5 117C303.296 116.994 307.994 112.296 308 106.5C308 100.701 303.299 96 297.5 96C291.701 96 287 100.701 287 106.5ZM288.235 106.5C288.235 101.383 292.383 97.2353 297.5 97.2353C302.614 97.241 306.759 101.386 306.765 106.5C306.765 111.617 302.617 115.765 297.5 115.765C292.383 115.765 288.235 111.617 288.235 106.5Z" fill="white"/>
<path fill-rule="evenodd" clip-rule="evenodd" d="M172 106.5C172 112.299 176.701 117 182.5 117C188.296 116.994 192.994 112.296 193 106.5C193 100.701 188.299 96 182.5 96C176.701 96 172 100.701 172 106.5ZM173.235 106.5C173.235 101.383 177.383 97.2353 182.5 97.2353C187.614 97.241 191.759 101.386 191.765 106.5C191.765 111.617 187.617 115.765 182.5 115.765C177.383 115.765 173.235 111.617 173.235 106.5Z" fill="white"/>
<path fill-rule="evenodd" clip-rule="evenodd" d="M343 240.5C343 246.299 347.701 251 353.5 251C359.296 250.994 363.994 246.296 364 240.5C364 234.701 359.299 230 353.5 230C347.701 230 343 234.701 343 240.5ZM344.235 240.5C344.235 235.383 348.383 231.235 353.5 231.235C358.614 231.241 362.759 235.386 362.765 240.5C362.765 245.617 358.617 249.765 353.5 249.765C348.383 249.765 344.235 245.617 344.235 240.5Z" fill="white"/>
<circle cx="354" cy="316" r="10" fill="#B00E23"/>
<path fill-rule="evenodd" clip-rule="evenodd" d="M172 315.5C172 321.299 176.701 326 182.5 326C188.296 325.994 192.994 321.296 193 315.5C193 309.701 188.299 305 182.5 305C176.701 305 172 309.701 172 315.5ZM173.235 315.5C173.235 310.383 177.383 306.235 182.5 306.235C187.614 306.241 191.759 310.386 191.765 315.5C191.765 320.617 187.617 324.765 182.5 324.765C177.383 324.765 173.235 320.617 173.235 315.5Z" fill="white"/>
<path fill-rule="evenodd" clip-rule="evenodd" d="M299 234.5C299 240.299 303.701 245 309.5 245C315.296 244.994 319.994 240.296 320 234.5C320 228.701 315.299 224 309.5 224C303.701 224 299 228.701 299 234.5ZM300.235 234.5C300.235 229.383 304.383 225.235 309.5 225.235C314.614 225.241 318.759 229.386 318.765 234.5C318.765 239.617 314.617 243.765 309.5 243.765C304.383 243.765 300.235 239.617 300.235 234.5Z" fill="white"/>
<path fill-rule="evenodd" clip-rule="evenodd" d="M12.5 219C5.59644 219 0 224.596 0 231.5C0 238.404 5.59644 244 12.5 244C19.4036 244 25 238.404 25 231.5C24.9798 224.605 19.3952 219.02 12.5 219ZM12.5 222.75C14.5711 222.75 16.25 224.429 16.25 226.5C16.25 228.571 14.5711 230.25 12.5 230.25C10.4289 230.25 8.75 228.571 8.75 226.5C8.7569 224.432 10.4318 222.757 12.5 222.75ZM5 236.8C6.68564 239.291 9.49244 240.789 12.5 240.803C15.5069 240.787 18.3125 239.289 20 236.8C19.9399 234.3 15 232.924 12.5 232.924C10 232.924 5.0601 234.3 5 236.8Z" fill="#040503"/>
<path fill-rule="evenodd" clip-rule="evenodd" d="M55.5 45C48.5964 45 43 50.5964 43 57.5C43 64.4036 48.5964 70 55.5 70C62.4036 70 68 64.4036 68 57.5C67.9798 50.6048 62.3952 45.0202 55.5 45ZM55.5 48.75C57.5711 48.75 59.25 50.4289 59.25 52.5C59.25 54.5711 57.5711 56.25 55.5 56.25C53.4289 56.25 51.75 54.5711 51.75 52.5C51.7569 50.4318 53.4318 48.7569 55.5 48.75ZM48 62.8005C49.6856 65.2913 52.4924 66.7892 55.5 66.8029C58.5069 66.7865 61.3125 65.2893 63 62.8005C62.9399 60.3005 58 58.9243 55.5 58.9243C53 58.9243 48.0601 60.3005 48 62.8005Z" fill="#040503"/>
<path fill-rule="evenodd" clip-rule="evenodd" d="M297.5 0C290.596 0 285 5.59644 285 12.5C285 19.4036 290.596 25 297.5 25C304.404 25 310 19.4036 310 12.5C309.98 5.60482 304.395 0.020183 297.5 0ZM297.5 3.75C299.571 3.75 301.25 5.42893 301.25 7.5C301.25 9.57107 299.571 11.25 297.5 11.25C295.429 11.25 293.75 9.57107 293.75 7.5C293.757 5.4318 295.432 3.7569 297.5 3.75ZM290 17.8005C291.686 20.2913 294.492 21.7892 297.5 21.8029C300.507 21.7865 303.313 20.2893 305 17.8005C304.94 15.3005 300 13.9243 297.5 13.9243C295 13.9243 290.06 15.3005 290 17.8005Z" fill="#040503"/>
<path fill-rule="evenodd" clip-rule="evenodd" d="M444.5 140C437.596 140 432 145.596 432 152.5C432 159.404 437.596 165 444.5 165C451.404 165 457 159.404 457 152.5C456.98 145.605 451.395 140.02 444.5 140ZM444.5 143.75C446.571 143.75 448.25 145.429 448.25 147.5C448.25 149.571 446.571 151.25 444.5 151.25C442.429 151.25 440.75 149.571 440.75 147.5C440.757 145.432 442.432 143.757 444.5 143.75ZM437 157.8C438.686 160.291 441.492 161.789 444.5 161.803C447.507 161.787 450.313 160.289 452 157.8C451.94 155.3 447 153.924 444.5 153.924C442 153.924 437.06 155.3 437 157.8Z" fill="#040503"/>
<path fill-rule="evenodd" clip-rule="evenodd" d="M469.5 226C462.596 226 457 231.596 457 238.5C457 245.404 462.596 251 469.5 251C476.404 251 482 245.404 482 238.5C481.98 231.605 476.395 226.02 469.5 226ZM469.5 229.75C471.571 229.75 473.25 231.429 473.25 233.5C473.25 235.571 471.571 237.25 469.5 237.25C467.429 237.25 465.75 235.571 465.75 233.5C465.757 231.432 467.432 229.757 469.5 229.75ZM462 243.8C463.686 246.291 466.492 247.789 469.5 247.803C472.507 247.787 475.313 246.289 477 243.8C476.94 241.3 472 239.924 469.5 239.924C467 239.924 462.06 241.3 462 243.8Z" fill="#040503"/>
<path d="M184.141 226L183 231.284C184.294 231.656 188.281 233.175 188.927 230.185C189.6 227.068 185.435 226.372 184.141 226Z" fill="#6C63FF"/>
<path d="M182.413 235L181 240.213C182.743 240.612 188.121 242.201 188.916 239.261C189.747 236.194 184.156 235.401 182.413 235Z" fill="#6C63FF"/>
<path d="M189.808 210.718C176.949 207.512 163.925 215.337 160.719 228.195C157.512 241.053 165.337 254.075 178.196 257.281C191.055 260.488 204.079 252.664 207.286 239.806C208.827 233.631 207.851 227.097 204.573 221.642C201.295 216.187 195.984 212.257 189.808 210.718Z" fill="#B00E23"/>
</svg>
