<svg width="64" height="64" viewBox="0 0 64 64" fill="none" xmlns="http://www.w3.org/2000/svg">
<g opacity="0.06">
<rect width="64" height="63.6816" rx="16" fill="#B00E23"/>
</g>
<path fill-rule="evenodd" clip-rule="evenodd" d="M44 31.8408C44 38.4353 38.6274 43.7811 32 43.7811C25.3726 43.7811 20 38.4353 20 31.8408C20 25.2464 25.3726 19.9005 32 19.9005C38.6274 19.9005 44 25.2464 44 31.8408ZM22.3999 31.8408C22.3999 37.1164 26.698 41.3931 31.9999 41.3931C37.3018 41.3931 41.5999 37.1164 41.5999 31.8408C41.5999 26.5653 37.3018 22.2886 31.9999 22.2886C26.698 22.2886 22.3999 26.5653 22.3999 31.8408ZM33.8002 33.1524C34.8761 32.533 35.5999 31.3755 35.5999 30.0497C35.5999 28.0714 33.9881 26.4677 31.9999 26.4677C30.0117 26.4677 28.3999 28.0714 28.3999 30.0497C28.3999 31.3757 29.124 32.5335 30.2002 33.1528V35.414C30.2002 36.4081 31.0061 37.214 32.0002 37.214C32.9943 37.214 33.8002 36.4081 33.8002 35.414V33.1524Z" fill="#B00E23"/>
</svg>
