<svg width="64" height="64" viewBox="0 0 64 64" fill="none" xmlns="http://www.w3.org/2000/svg">
<g opacity="0.06">
<rect width="64" height="63.6816" rx="16" fill="#B00E23"/>
</g>
<path fill-rule="evenodd" clip-rule="evenodd" d="M22.0001 25.7286C22 25.7391 22 25.7496 22 25.7601C22 27.4781 22.8694 28.9881 24.1821 29.8536C24.921 30.3414 25.8003 30.6246 26.744 30.6246H26.7485H36.2501C38.8705 30.6246 40.9941 28.4467 40.9941 25.7601C40.9941 23.0789 38.8701 20.8955 36.2501 20.8955H26.7485H26.744C24.1338 20.8955 22.0166 23.0565 22.0001 25.7286ZM30.8618 28.1923C31.2658 27.4768 31.497 26.6461 31.497 25.7601C31.497 24.874 31.2658 24.0433 30.8617 23.3278H36.2498C37.5558 23.3278 38.6196 24.4194 38.6196 25.76C38.6196 27.104 37.5583 28.1923 36.2498 28.1923H30.8618Z" fill="#B00E23"/>
<path fill-rule="evenodd" clip-rule="evenodd" d="M40.994 38.896C40.9941 38.8855 40.9941 38.8751 40.9941 38.8646C40.9941 37.1465 40.1248 35.6365 38.8121 34.771C38.0732 34.2833 37.1938 34 36.2501 34L36.2456 34L26.7441 34C24.1236 34 22.0001 36.1779 22.0001 38.8646C22.0001 41.5457 24.124 43.7291 26.7441 43.7291L36.2456 43.7291L36.2501 43.7291C38.8603 43.7291 40.9775 41.5682 40.994 38.896ZM32.1324 36.4323C31.7284 37.1478 31.4971 37.9785 31.4971 38.8646C31.4971 39.7506 31.7284 40.5814 32.1324 41.2969L26.7443 41.2969C25.4383 41.2969 24.3746 40.2053 24.3746 38.8646C24.3746 37.5206 25.4358 36.4323 26.7443 36.4323L32.1324 36.4323Z" fill="#B00E23"/>
</svg>
