<svg width="15" height="12" viewBox="0 0 15 12" fill="none" xmlns="http://www.w3.org/2000/svg">
<g id="Icon">
<path id="Icon_2" d="M5.09764 10.957L0.205078 6.09374C0.0683591 5.95702 0 5.78124 0 5.56639C0 5.35155 0.0683591 5.17577 0.205078 5.03905L1.28906 3.98437C1.42578 3.82812 1.59668 3.75 1.80175 3.75C2.00683 3.75 2.1875 3.82812 2.34374 3.98437L5.62499 7.26561L12.6562 0.234374C12.8125 0.078125 12.9931 0 13.1982 0C13.4033 0 13.5742 0.078125 13.7109 0.234374L14.7949 1.28906C14.9316 1.42578 15 1.60156 15 1.8164C15 2.03125 14.9316 2.20703 14.7949 2.34374L6.15233 10.957C6.01561 11.1133 5.83983 11.1914 5.62499 11.1914C5.41014 11.1914 5.23436 11.1133 5.09764 10.957Z" fill="#36B37E"/>
</g>
</svg>
