<svg width="64" height="64" viewBox="0 0 64 64" fill="none" xmlns="http://www.w3.org/2000/svg">
<g opacity="0.06">
<rect width="64" height="63.6816" rx="16" fill="#B00E23"/>
</g>
<path fill-rule="evenodd" clip-rule="evenodd" d="M21.2 19.9005C20.5373 19.9005 20 20.4378 20 21.1005V42.5811L20 42.5841L20 42.5871C20 43.2465 20.5346 43.7811 21.194 43.7811H42.806C43.4654 43.7811 44 43.2465 44 42.5871C44 41.9277 43.4654 41.3931 42.806 41.3931H22.4V21.1005C22.4 20.4378 21.8627 19.9005 21.2 19.9005ZM26.8969 34.0566C26.6198 34.1677 26.3172 34.2289 26.0001 34.2289C24.6746 34.2289 23.6001 33.1597 23.6001 31.8408C23.6001 30.5219 24.6746 29.4528 26.0001 29.4528C27.3256 29.4528 28.4001 30.5219 28.4001 31.8408C28.4001 31.9546 28.3921 32.0665 28.3766 32.1761L31.1298 34.3908C31.3996 34.2862 31.6931 34.2289 32.0001 34.2289C32.0478 34.2289 32.0952 34.2303 32.1422 34.233L38.3119 24.6607C38.1134 24.3131 38 23.911 38 23.4825C38 22.1637 39.0745 21.0945 40.4 21.0945C41.7255 21.0945 42.8 22.1637 42.8 23.4825C42.8 24.8014 41.7255 25.8706 40.4 25.8706C40.3942 25.8706 40.3885 25.8706 40.3827 25.8705L34.1447 35.5437C34.3081 35.8664 34.4001 36.231 34.4001 36.6169C34.4001 37.9358 33.3256 39.005 32.0001 39.005C30.6746 39.005 29.6001 37.9358 29.6001 36.6169C29.6001 36.4933 29.6095 36.3719 29.6277 36.2533L26.8969 34.0566Z" fill="#B00E23"/>
</svg>
