<svg width="64" height="64" viewBox="0 0 64 64" fill="none" xmlns="http://www.w3.org/2000/svg">
<g opacity="0.06">
<rect width="64" height="63.6816" rx="16" fill="#B00E23"/>
</g>
<path fill-rule="evenodd" clip-rule="evenodd" d="M22.0001 25.7286C22 25.7391 22 25.7496 22 25.7601C22 27.4781 22.8694 28.9881 24.1821 29.8536C24.921 30.3414 25.8003 30.6246 26.744 30.6246H26.7485H36.2501C38.8705 30.6246 40.9941 28.4467 40.9941 25.7601C40.9941 23.0789 38.8701 20.8955 36.2501 20.8955H26.7485H26.744C24.1338 20.8955 22.0166 23.0565 22.0001 25.7286ZM30.8618 28.1923C31.2658 27.4768 31.497 26.6461 31.497 25.7601C31.497 24.874 31.2658 24.0433 30.8617 23.3278H36.2498C37.5558 23.3278 38.6196 24.4194 38.6196 25.76C38.6196 27.104 37.5583 28.1923 36.2498 28.1923H30.8618Z" fill="#B00E23"/>
</svg>
