<svg width="64" height="64" viewBox="0 0 64 64" fill="none" xmlns="http://www.w3.org/2000/svg">
<g opacity="0.06">
<rect width="64" height="63.6816" rx="16" fill="#B00E23"/>
</g>
<path fill-rule="evenodd" clip-rule="evenodd" d="M19 41.9209C19 42.8214 19.9246 43.407 20.7103 43.0043L22.5488 42.0654L24.3823 43.0045C24.715 43.1749 25.1066 43.1748 25.4393 43.0042L27.2764 42.0657L28.8675 42.8811C30.4698 45.23 33.1282 46.7662 36.1366 46.7662C41.0318 46.7662 45.0002 42.6987 45.0002 37.6812C45.0002 34.1948 43.0843 31.1671 40.2727 29.6439V21.328C40.2727 19.9872 39.2144 18.9055 37.9081 18.9055H21.3647C20.0556 18.9055 19 19.989 19 21.328V41.9209ZM37.9121 28.7785C37.9108 24.8187 37.9093 21.3282 37.9083 21.3282C37.9083 21.3282 21.3639 21.3263 21.3639 21.328V39.9592L22.0172 39.6261C22.3498 39.4556 22.7413 39.4556 23.074 39.6259L24.9212 40.5708L26.7442 39.6262C26.9659 39.5125 27.2138 39.4745 27.4531 39.5123C27.335 38.9209 27.2729 38.3085 27.2729 37.6812C27.2729 37.0589 27.334 36.4513 27.4503 35.8642H24.9271C24.2643 35.8642 23.7271 35.3156 23.7271 34.6529C23.7271 33.9901 24.2643 33.4415 24.9271 33.4415H28.2953C29.7814 30.5599 32.7353 28.5962 36.1366 28.5962C36.7447 28.5962 37.3384 28.659 37.9121 28.7785ZM23.7271 29.8075C23.7271 29.1448 24.2643 28.5962 24.9271 28.5962H27.2543C27.9171 28.5962 28.4543 29.1448 28.4543 29.8075C28.4543 30.4703 27.9171 31.0189 27.2543 31.0189H24.9271C24.2643 31.0189 23.7271 30.4703 23.7271 29.8075ZM23.7271 24.9622C23.7271 24.2994 24.2643 23.7509 24.9271 23.7509H34.3452C35.008 23.7509 35.5452 24.2994 35.5452 24.9622C35.5452 25.6249 35.008 26.1735 34.3452 26.1735H24.9271C24.2643 26.1735 23.7271 25.6249 23.7271 24.9622ZM42.6362 37.6813C42.6362 41.3608 39.7261 44.3436 36.1362 44.3436C32.5464 44.3436 29.6362 41.3608 29.6362 37.6813C29.6362 34.0018 32.5464 31.0189 36.1362 31.0189C39.7261 31.0189 42.6362 34.0018 42.6362 37.6813ZM35.79 41.566C35.3285 42.0391 34.5801 42.0391 34.1186 41.566L31.7553 39.1433C31.2938 38.6702 31.2938 37.9033 31.7554 37.4302C32.2169 36.9572 32.9652 36.9573 33.4267 37.4303L34.9682 39.0105L38.8459 35.0076C39.3075 34.5346 40.0558 34.5346 40.5173 35.0076C40.9788 35.4807 40.9788 36.2477 40.5173 36.7207L35.79 41.566Z" fill="#B00E23"/>
</svg>
