<svg width="349" height="66" viewBox="0 0 349 66" fill="none" xmlns="http://www.w3.org/2000/svg">
<path d="M25.9541 13.2396C25.8475 13.0796 25.6608 12.893 25.3941 12.6796C25.1808 12.4663 24.6208 12.1996 23.7141 11.8796C22.8075 11.5596 21.7941 11.3996 20.6741 11.3996C18.2741 11.453 16.1675 12.0663 14.3541 13.2396C12.5408 14.413 11.5808 16.2796 11.4741 18.8396C11.4208 20.0663 11.7408 21.1863 12.4341 22.1996C13.1808 23.1596 13.9808 23.9063 14.8341 24.4396L8.59414 30.7596C3.68747 27.6663 1.58081 22.973 2.27414 16.6796C2.70081 12.6796 4.67414 9.37295 8.19414 6.75962C11.7675 4.09295 15.6075 2.73295 19.7141 2.67962C22.0608 2.67962 24.3541 3.10629 26.5941 3.95962C28.8341 4.75962 30.5941 5.85295 31.8741 7.23962L25.9541 13.2396ZM18.1941 35.5596L24.9941 28.9196C26.4341 29.613 27.6341 30.2263 28.5941 30.7596C29.6075 31.293 30.7808 32.1196 32.1141 33.2396C33.4475 34.3063 34.5141 35.4796 35.3141 36.7596C36.1141 37.9863 36.7808 39.5863 37.3141 41.5596C37.8475 43.4796 38.0875 45.613 38.0341 47.9596C37.9808 49.453 37.7141 50.9996 37.2341 52.5996C36.7541 54.1996 35.9541 55.7996 34.8341 57.3996C33.7675 58.9463 32.4608 60.333 30.9141 61.5596C29.4208 62.733 27.5008 63.6663 25.1541 64.3596C22.8608 65.053 20.3275 65.3463 17.5541 65.2396C15.1008 65.0796 12.8341 64.5996 10.7541 63.7996C8.72747 62.9463 7.12747 62.013 5.95414 60.9996C4.78081 59.933 3.79414 58.8396 2.99414 57.7196C2.19414 56.5996 1.66081 55.7196 1.39414 55.0796C1.12747 54.3863 0.994141 53.9863 0.994141 53.8796L8.75414 45.4796C8.75414 45.6396 8.75414 45.853 8.75414 46.1196C8.80747 46.333 8.88747 46.813 8.99414 47.5596C9.10081 48.253 9.23414 48.9463 9.39414 49.6396C9.60747 50.2796 9.92747 51.0263 10.3541 51.8796C10.8341 52.733 11.3675 53.4796 11.9541 54.1196C12.5941 54.7596 13.4208 55.3196 14.4341 55.7996C15.4475 56.2796 16.5941 56.5996 17.8741 56.7596C20.3808 57.0263 22.7541 56.413 24.9941 54.9196C27.2341 53.4263 28.5141 51.453 28.8341 48.9996C29.0475 47.3996 28.9941 45.933 28.6741 44.5996C28.3541 43.213 27.9008 42.1196 27.3141 41.3196C26.7275 40.4663 25.8475 39.6396 24.6741 38.8396C23.5541 38.0396 22.5408 37.453 21.6341 37.0796C20.7808 36.653 19.6341 36.1463 18.1941 35.5596Z" fill="#B00E23"/>
<path d="M94.386 55.7196V64.2796L58.226 64.3596L57.986 55.7996L94.386 55.7196ZM93.746 26.9996V35.5596L58.066 35.3996V27.0796L93.746 26.9996ZM94.386 3.95962V12.4396L57.986 12.5996V4.03962L94.386 3.95962Z" fill="#B00E23"/>
<path d="M140.954 13.2396C140.847 13.0796 140.661 12.893 140.394 12.6796C140.181 12.4663 139.621 12.1996 138.714 11.8796C137.807 11.5596 136.794 11.3996 135.674 11.3996C133.274 11.453 131.167 12.0663 129.354 13.2396C127.541 14.413 126.581 16.2796 126.474 18.8396C126.421 20.0663 126.741 21.1863 127.434 22.1996C128.181 23.1596 128.981 23.9063 129.834 24.4396L123.594 30.7596C118.687 27.6663 116.581 22.973 117.274 16.6796C117.701 12.6796 119.674 9.37295 123.194 6.75962C126.767 4.09295 130.607 2.73295 134.714 2.67962C137.061 2.67962 139.354 3.10629 141.594 3.95962C143.834 4.75962 145.594 5.85295 146.874 7.23962L140.954 13.2396ZM133.194 35.5596L139.994 28.9196C141.434 29.613 142.634 30.2263 143.594 30.7596C144.607 31.293 145.781 32.1196 147.114 33.2396C148.447 34.3063 149.514 35.4796 150.314 36.7596C151.114 37.9863 151.781 39.5863 152.314 41.5596C152.847 43.4796 153.087 45.613 153.034 47.9596C152.981 49.453 152.714 50.9996 152.234 52.5996C151.754 54.1996 150.954 55.7996 149.834 57.3996C148.767 58.9463 147.461 60.333 145.914 61.5596C144.421 62.733 142.501 63.6663 140.154 64.3596C137.861 65.053 135.327 65.3463 132.554 65.2396C130.101 65.0796 127.834 64.5996 125.754 63.7996C123.727 62.9463 122.127 62.013 120.954 60.9996C119.781 59.933 118.794 58.8396 117.994 57.7196C117.194 56.5996 116.661 55.7196 116.394 55.0796C116.127 54.3863 115.994 53.9863 115.994 53.8796L123.754 45.4796C123.754 45.6396 123.754 45.853 123.754 46.1196C123.807 46.333 123.887 46.813 123.994 47.5596C124.101 48.253 124.234 48.9463 124.394 49.6396C124.607 50.2796 124.927 51.0263 125.354 51.8796C125.834 52.733 126.367 53.4796 126.954 54.1196C127.594 54.7596 128.421 55.3196 129.434 55.7996C130.447 56.2796 131.594 56.5996 132.874 56.7596C135.381 57.0263 137.754 56.413 139.994 54.9196C142.234 53.4263 143.514 51.453 143.834 48.9996C144.047 47.3996 143.994 45.933 143.674 44.5996C143.354 43.213 142.901 42.1196 142.314 41.3196C141.727 40.4663 140.847 39.6396 139.674 38.8396C138.554 38.0396 137.541 37.453 136.634 37.0796C135.781 36.653 134.634 36.1463 133.194 35.5596Z" fill="#B00E23"/>
<path d="M205.306 35.5596L214.666 35.4796L227.866 64.3596L217.866 64.2796L205.306 35.5596ZM186.426 27.3996L198.746 0.359619L211.146 27.3996H186.426ZM169.466 64.1996L182.666 35.6396H192.586L179.386 64.1996H169.466Z" fill="#B00E23"/>
<path d="M233.699 0.99962L263.219 32.8396L291.139 0.919617L290.659 16.5996L263.059 47.7196V47.7996L233.939 15.5596L233.699 0.99962ZM290.898 64.4396L281.379 64.3596L281.539 37.7996L290.898 27.2396V64.4396Z" fill="#B00E23"/>
<path d="M348.917 55.7196V64.2796L312.757 64.3596L312.517 55.7996L348.917 55.7196ZM348.277 26.9996V35.5596L312.597 35.3996V27.0796L348.277 26.9996ZM348.917 3.95962V12.4396L312.517 12.5996V4.03962L348.917 3.95962Z" fill="#B00E23"/>
</svg>
