<svg width="441" height="186" viewBox="0 0 441 186" fill="none" xmlns="http://www.w3.org/2000/svg">
<path d="M71.4544 73.96C71.3477 73.8 71.161 73.6133 70.8944 73.4C70.681 73.1867 70.121 72.92 69.2144 72.6C68.3077 72.28 67.2944 72.12 66.1744 72.12C63.7744 72.1733 61.6677 72.7867 59.8544 73.96C58.041 75.1333 57.081 77 56.9744 79.56C56.921 80.7867 57.241 81.9067 57.9344 82.92C58.681 83.88 59.481 84.6267 60.3344 85.16L54.0944 91.48C49.1877 88.3867 47.081 83.6933 47.7744 77.4C48.201 73.4 50.1744 70.0933 53.6944 67.48C57.2677 64.8133 61.1077 63.4533 65.2144 63.4C67.561 63.4 69.8544 63.8267 72.0944 64.68C74.3344 65.48 76.0944 66.5733 77.3744 67.96L71.4544 73.96ZM63.6944 96.28L70.4944 89.64C71.9344 90.3333 73.1344 90.9467 74.0944 91.48C75.1077 92.0133 76.281 92.84 77.6144 93.96C78.9477 95.0267 80.0144 96.2 80.8144 97.48C81.6144 98.7067 82.281 100.307 82.8144 102.28C83.3477 104.2 83.5877 106.333 83.5344 108.68C83.481 110.173 83.2144 111.72 82.7344 113.32C82.2544 114.92 81.4544 116.52 80.3344 118.12C79.2677 119.667 77.961 121.053 76.4144 122.28C74.921 123.453 73.001 124.387 70.6544 125.08C68.361 125.773 65.8277 126.067 63.0544 125.96C60.601 125.8 58.3344 125.32 56.2544 124.52C54.2277 123.667 52.6277 122.733 51.4544 121.72C50.281 120.653 49.2944 119.56 48.4944 118.44C47.6944 117.32 47.161 116.44 46.8944 115.8C46.6277 115.107 46.4944 114.707 46.4944 114.6L54.2544 106.2C54.2544 106.36 54.2544 106.573 54.2544 106.84C54.3077 107.053 54.3877 107.533 54.4944 108.28C54.601 108.973 54.7344 109.667 54.8944 110.36C55.1077 111 55.4277 111.747 55.8544 112.6C56.3344 113.453 56.8677 114.2 57.4544 114.84C58.0944 115.48 58.921 116.04 59.9344 116.52C60.9477 117 62.0944 117.32 63.3744 117.48C65.881 117.747 68.2544 117.133 70.4944 115.64C72.7344 114.147 74.0144 112.173 74.3344 109.72C74.5477 108.12 74.4944 106.653 74.1744 105.32C73.8544 103.933 73.401 102.84 72.8144 102.04C72.2277 101.187 71.3477 100.36 70.1744 99.56C69.0544 98.76 68.041 98.1733 67.1344 97.8C66.281 97.3733 65.1344 96.8667 63.6944 96.28ZM139.886 116.44V125L103.726 125.08L103.486 116.52L139.886 116.44ZM139.246 87.72V96.28L103.566 96.12V87.8L139.246 87.72ZM139.886 64.68V73.16L103.486 73.32V64.76L139.886 64.68ZM186.454 73.96C186.348 73.8 186.161 73.6133 185.894 73.4C185.681 73.1867 185.121 72.92 184.214 72.6C183.308 72.28 182.294 72.12 181.174 72.12C178.774 72.1733 176.668 72.7867 174.854 73.96C173.041 75.1333 172.081 77 171.974 79.56C171.921 80.7867 172.241 81.9067 172.934 82.92C173.681 83.88 174.481 84.6267 175.334 85.16L169.094 91.48C164.188 88.3867 162.081 83.6933 162.774 77.4C163.201 73.4 165.174 70.0933 168.694 67.48C172.268 64.8133 176.108 63.4533 180.214 63.4C182.561 63.4 184.854 63.8267 187.094 64.68C189.334 65.48 191.094 66.5733 192.374 67.96L186.454 73.96ZM178.694 96.28L185.494 89.64C186.934 90.3333 188.134 90.9467 189.094 91.48C190.108 92.0133 191.281 92.84 192.614 93.96C193.948 95.0267 195.014 96.2 195.814 97.48C196.614 98.7067 197.281 100.307 197.814 102.28C198.348 104.2 198.588 106.333 198.534 108.68C198.481 110.173 198.214 111.72 197.734 113.32C197.254 114.92 196.454 116.52 195.334 118.12C194.268 119.667 192.961 121.053 191.414 122.28C189.921 123.453 188.001 124.387 185.654 125.08C183.361 125.773 180.828 126.067 178.054 125.96C175.601 125.8 173.334 125.32 171.254 124.52C169.228 123.667 167.628 122.733 166.454 121.72C165.281 120.653 164.294 119.56 163.494 118.44C162.694 117.32 162.161 116.44 161.894 115.8C161.628 115.107 161.494 114.707 161.494 114.6L169.254 106.2C169.254 106.36 169.254 106.573 169.254 106.84C169.308 107.053 169.388 107.533 169.494 108.28C169.601 108.973 169.734 109.667 169.894 110.36C170.108 111 170.428 111.747 170.854 112.6C171.334 113.453 171.868 114.2 172.454 114.84C173.094 115.48 173.921 116.04 174.934 116.52C175.948 117 177.094 117.32 178.374 117.48C180.881 117.747 183.254 117.133 185.494 115.64C187.734 114.147 189.014 112.173 189.334 109.72C189.548 108.12 189.494 106.653 189.174 105.32C188.854 103.933 188.401 102.84 187.814 102.04C187.228 101.187 186.348 100.36 185.174 99.56C184.054 98.76 183.041 98.1733 182.134 97.8C181.281 97.3733 180.134 96.8667 178.694 96.28ZM250.806 96.28L260.166 96.2L273.366 125.08L263.366 125L250.806 96.28ZM231.926 88.12L244.246 61.08L256.646 88.12H231.926ZM214.966 124.92L228.166 96.36H238.086L224.886 124.92H214.966ZM279.199 61.72L308.719 93.56L336.639 61.64L336.159 77.32L308.559 108.44V108.52L279.439 76.28L279.199 61.72ZM336.399 125.16L326.879 125.08L327.039 98.52L336.399 87.96V125.16ZM394.418 116.44V125L358.258 125.08L358.018 116.52L394.418 116.44ZM393.778 87.72V96.28L358.098 96.12V87.8L393.778 87.72ZM394.418 64.68V73.16L358.018 73.32V64.76L394.418 64.68Z" fill="#B00E23"/>
</svg>
